<svg xmlns="http://www.w3.org/2000/svg" width="30.75" viewBox="0 0 30.75 30" height="30" version="1.0"><defs><clipPath id="a"><path d="M 0.375 0 L 30.132812 0 L 30.132812 29.03125 L 0.375 29.03125 Z M 0.375 0"/></clipPath><clipPath id="b"><path d="M 0.375 1.175781 L 7 1.175781 L 7 8 L 0.375 8 Z M 0.375 1.175781"/></clipPath><clipPath id="c"><path d="M 0.375 1.175781 L 16 1.175781 L 16 28.980469 L 0.375 28.980469 Z M 0.375 1.175781"/></clipPath><clipPath id="d"><path d="M 15 1.175781 L 30.132812 1.175781 L 30.132812 28.980469 L 15 28.980469 Z M 15 1.175781"/></clipPath><clipPath id="e"><path d="M 24 1.175781 L 30.132812 1.175781 L 30.132812 8 L 24 8 Z M 24 1.175781"/></clipPath></defs><g clip-path="url(#a)" fill="#FFF"><path d="M 0.375 0 L 30.375 0 L 30.375 29.269531 L 0.375 29.269531 Z M 0.375 0"/><path d="M 0.375 0 L 30.375 0 L 30.375 29.269531 L 0.375 29.269531 Z M 0.375 0"/></g><path fill="#ED4C4C" d="M 20.367188 13.535156 L 17.871094 13.535156 C 17.707031 13.535156 17.546875 13.503906 17.394531 13.441406 C 17.242188 13.378906 17.105469 13.289062 16.988281 13.171875 C 16.871094 13.058594 16.78125 12.921875 16.71875 12.773438 C 16.65625 12.621094 16.625 12.464844 16.625 12.300781 L 16.625 9.828125 L 14.125 9.828125 L 14.125 12.300781 C 14.125 12.464844 14.09375 12.621094 14.03125 12.773438 C 13.96875 12.921875 13.878906 13.058594 13.761719 13.171875 C 13.644531 13.289062 13.507812 13.378906 13.355469 13.441406 C 13.203125 13.503906 13.042969 13.535156 12.878906 13.535156 L 10.382812 13.535156 L 10.382812 16.007812 L 12.878906 16.007812 C 13.042969 16.007812 13.203125 16.039062 13.355469 16.101562 C 13.507812 16.164062 13.644531 16.253906 13.761719 16.367188 C 13.878906 16.484375 13.96875 16.617188 14.03125 16.769531 C 14.09375 16.921875 14.125 17.078125 14.125 17.242188 L 14.125 19.714844 L 16.625 19.714844 L 16.625 17.242188 C 16.625 17.078125 16.65625 16.921875 16.71875 16.769531 C 16.78125 16.617188 16.871094 16.484375 16.988281 16.367188 C 17.105469 16.253906 17.242188 16.164062 17.394531 16.101562 C 17.546875 16.039062 17.707031 16.007812 17.871094 16.007812 L 20.367188 16.007812 Z M 20.367188 13.535156"/><g clip-path="url(#b)"><path fill="#658DEF" d="M 6.636719 4.265625 C 6.636719 4.675781 6.554688 5.070312 6.398438 5.449219 C 6.238281 5.828125 6.015625 6.160156 5.722656 6.453125 C 5.429688 6.742188 5.089844 6.964844 4.707031 7.121094 C 4.328125 7.277344 3.929688 7.355469 3.515625 7.355469 C 3.101562 7.355469 2.703125 7.277344 2.320312 7.121094 C 1.9375 6.964844 1.601562 6.742188 1.308594 6.453125 C 1.015625 6.160156 0.789062 5.828125 0.632812 5.449219 C 0.472656 5.070312 0.394531 4.675781 0.394531 4.265625 C 0.394531 3.855469 0.472656 3.464844 0.632812 3.085938 C 0.789062 2.707031 1.015625 2.371094 1.308594 2.082031 C 1.601562 1.792969 1.9375 1.570312 2.320312 1.414062 C 2.703125 1.253906 3.101562 1.175781 3.515625 1.175781 C 3.929688 1.175781 4.328125 1.253906 4.707031 1.414062 C 5.089844 1.570312 5.429688 1.792969 5.722656 2.082031 C 6.015625 2.371094 6.238281 2.707031 6.398438 3.085938 C 6.554688 3.464844 6.636719 3.855469 6.636719 4.265625 Z M 6.636719 4.265625"/></g><g clip-path="url(#c)"><path fill="#658DEF" d="M 15.375 28.980469 C 7.882812 20.332031 0.394531 19.097656 0.394531 8.59375 C 6.011719 9.210938 9.757812 6.738281 15.375 1.796875 C 15.375 5.503906 11.003906 9.828125 7.882812 12.300781 C 4.175781 15.234375 15.375 22.183594 15.375 28.980469 Z M 15.375 28.980469"/></g><g clip-path="url(#d)"><path fill="#57C988" d="M 15.375 28.980469 C 22.867188 20.332031 30.355469 19.097656 30.355469 8.59375 C 24.738281 9.210938 20.992188 6.738281 15.375 1.796875 C 15.375 5.503906 19.746094 9.828125 22.867188 12.300781 C 26.574219 15.234375 15.40625 22.183594 15.375 28.980469 Z M 15.375 28.980469"/></g><g clip-path="url(#e)"><path fill="#57C988" d="M 30.355469 4.265625 C 30.355469 4.675781 30.277344 5.070312 30.117188 5.449219 C 29.960938 5.828125 29.734375 6.160156 29.441406 6.453125 C 29.148438 6.742188 28.8125 6.964844 28.429688 7.121094 C 28.046875 7.277344 27.648438 7.355469 27.234375 7.355469 C 26.820312 7.355469 26.421875 7.277344 26.042969 7.121094 C 25.660156 6.964844 25.320312 6.742188 25.027344 6.453125 C 24.734375 6.160156 24.511719 5.828125 24.351562 5.449219 C 24.195312 5.070312 24.113281 4.675781 24.113281 4.265625 C 24.113281 3.855469 24.195312 3.464844 24.351562 3.085938 C 24.511719 2.707031 24.734375 2.371094 25.027344 2.082031 C 25.320312 1.792969 25.660156 1.570312 26.042969 1.414062 C 26.421875 1.253906 26.820312 1.175781 27.234375 1.175781 C 27.648438 1.175781 28.046875 1.253906 28.429688 1.414062 C 28.8125 1.570312 29.148438 1.792969 29.441406 2.082031 C 29.734375 2.371094 29.960938 2.707031 30.117188 3.085938 C 30.277344 3.464844 30.355469 3.855469 30.355469 4.265625 Z M 30.355469 4.265625"/></g></svg>